<svg width="178" height="129" viewBox="0 0 178 129" fill="none" xmlns="http://www.w3.org/2000/svg">
<path d="M30.9751 46.8253L63.5156 56.3372C64.5281 56.6332 64.7016 57.9771 63.7781 58.4869C52.1944 64.8808 28.5159 74.6179 9.74289 71.1278C-10.2652 67.408 14.7802 53.52 30.1658 46.8724C30.4234 46.7611 30.7057 46.7465 30.9751 46.8253Z" fill="#C1D8FC"/>
<circle cx="86.5408" cy="64.5" r="64.5" fill="url(#paint0_radial_15_51)"/>
<circle cx="61.5014" cy="36.6569" r="4.50636" fill="#2B2B2B" stroke="#2B2B2B" stroke-width="0.201562"/>
<circle cx="88.3422" cy="36.6569" r="4.50636" fill="#2B2B2B" stroke="#2B2B2B" stroke-width="0.201562"/>
<line x1="58.4003" y1="26.5385" x2="65.0051" y2="26.5385" stroke="#2B2B2B" stroke-width="2.2089" stroke-linecap="round"/>
<line x1="85.2421" y1="26.5385" x2="91.8469" y2="26.5385" stroke="#2B2B2B" stroke-width="2.2089" stroke-linecap="round"/>
<circle opacity="0.12" cx="44.876" cy="46.8724" r="12.8199" fill="white"/>
<circle opacity="0.12" cx="104.969" cy="46.8724" r="12.8199" fill="white"/>
<path d="M51.6026 46.4463C50.8222 46.2239 50.8222 45.1179 51.6026 44.8955L74.9977 38.229C75.3492 38.1288 75.7242 38.2777 75.9113 38.5916L79.884 45.2581C80.0356 45.5124 80.0356 45.8293 79.884 46.0836L75.9113 52.7502C75.7242 53.0642 75.3492 53.213 74.9977 53.1128L51.6026 46.4463Z" fill="#FF4949"/>
<path d="M146.132 47.1443L113.615 56.7369C112.604 57.0354 112.433 58.3797 113.358 58.8872C124.958 65.2524 148.66 74.9307 167.424 71.394C187.423 67.6246 162.344 53.7988 146.942 47.1894C146.684 47.0787 146.401 47.0648 146.132 47.1443Z" fill="#C1D8FC"/>
<defs>
<radialGradient id="paint0_radial_15_51" cx="0" cy="0" r="1" gradientUnits="userSpaceOnUse" gradientTransform="translate(110.778 103.761) rotate(-122.729) scale(109.294)">
<stop stop-color="#5197FF"/>
<stop offset="1" stop-color="#F6FAFF"/>
</radialGradient>
</defs>
</svg>
