<svg width="393" height="358" viewBox="0 0 393 358" fill="none" xmlns="http://www.w3.org/2000/svg">
<g clip-path="url(#clip0_697_3320)">
<rect width="393" height="358" fill="#5197FF"/>
<path d="M115.312 73C154.869 73.0002 188.197 99.6582 198.315 135.988C213.464 111.289 240.713 94.8117 271.812 94.8115C319.394 94.8115 357.968 133.384 357.968 180.967C357.968 184.474 357.756 187.933 357.349 191.331C357.555 191.33 357.762 191.328 357.969 191.328C405.551 191.328 444.124 229.902 444.124 277.484C444.124 325.067 405.551 363.639 357.969 363.64C351.603 363.64 345.399 362.949 339.427 361.639V374H63.5098V364.315C54.6304 367.409 45.09 369.092 35.1562 369.092C-12.4262 369.092 -50.9998 330.519 -51 282.937C-51 235.354 -12.4263 196.78 35.1562 196.78C36.0426 196.78 36.9258 196.795 37.8057 196.821C32.2658 185.443 29.1563 172.663 29.1562 159.156C29.1562 111.574 67.7299 73 115.312 73Z" fill="url(#paint0_linear_697_3320)"/>
<path d="M124.757 303.496L147.443 347.739C147.925 348.678 147.074 349.734 146.066 349.424C128.383 343.98 93.9619 328.859 78.8488 305.506C63.0375 281.074 102.224 293.517 124.167 302.94C124.425 303.051 124.629 303.246 124.757 303.496Z" fill="#C1D8FC"/>
<circle cx="197.438" cy="340" r="92" fill="url(#paint1_radial_697_3320)"/>
<circle cx="161.722" cy="300.286" r="6.47065" fill="#2B2B2B" stroke="#2B2B2B" stroke-width="0.201562"/>
<circle cx="200.007" cy="300.286" r="6.47065" fill="#2B2B2B" stroke="#2B2B2B" stroke-width="0.201562"/>
<line x1="157.223" y1="285.929" x2="166.794" y2="285.929" stroke="#2B2B2B" stroke-width="3" stroke-linecap="round"/>
<line x1="195.019" y1="285.563" x2="207.015" y2="281.991" stroke="#2B2B2B" stroke-width="3" stroke-linecap="round"/>
<circle opacity="0.12" cx="138.008" cy="314.857" r="18.2857" fill="white"/>
<circle opacity="0.12" cx="223.723" cy="314.857" r="18.2857" fill="white"/>
<path d="M146.442 313.918C145.661 313.696 145.661 312.59 146.442 312.367L181.226 302.456C181.577 302.355 181.952 302.504 182.139 302.818L188.046 312.73C188.198 312.984 188.198 313.301 188.046 313.555L182.139 323.467C181.952 323.781 181.577 323.93 181.226 323.83L146.442 313.918Z" fill="#FF4949"/>
<path d="M272.051 297.163L242.185 336.915C241.551 337.758 242.21 338.944 243.256 338.809C261.606 336.445 298.095 327.386 316.952 306.937C336.681 285.543 295.951 291.154 272.727 296.716C272.454 296.782 272.22 296.939 272.051 297.163Z" fill="#C1D8FC"/>
<path opacity="0.7" d="M347.874 60.5806L363.527 51.9539L352.951 66.4516L368 72.3226L349.989 75.0184L350.835 87L342.797 75.8571L332.885 81.9677L337.297 70.2258L324 66.4516L335 63.0968L337.297 48L347.874 60.5806Z" fill="white"/>
<path opacity="0.2" d="M301.65 231.742L311.255 226.433L304.765 235.355L314 238.968L302.948 240.627L303.467 248L298.534 241.143L292.452 244.903L295.159 237.677L287 235.355L293.75 233.29L295.159 224L301.65 231.742Z" fill="white"/>
<path opacity="0.4" d="M77.8736 235.581L93.5275 226.954L82.9505 241.452L98 247.323L79.989 250.018L80.8352 262L72.7967 250.857L62.8846 256.968L67.2967 245.226L54 241.452L65 238.097L67.2967 223L77.8736 235.581Z" fill="white"/>
<path opacity="0.12" d="M55.8736 99.5806L71.5275 90.9539L60.9505 105.452L76 111.323L57.989 114.018L58.8352 126L50.7967 114.857L40.8846 120.968L45.2967 109.226L32 105.452L43 102.097L45.2967 87L55.8736 99.5806Z" fill="white"/>
<circle opacity="0.6" cx="330.5" cy="236.5" r="2.5" fill="#1F79FF"/>
<circle cx="54" cy="140" r="2" fill="#D9D9D9"/>
<circle opacity="0.5" cx="51.5" cy="259.5" r="2.5" fill="#FCFCFC"/>
<circle opacity="0.44" cx="343.5" cy="100.5" r="2.5" fill="#1F79FF"/>
<circle cx="284.5" cy="215.5" r="2.5" fill="#FCFCFC"/>
<g filter="url(#filter0_d_697_3320)">
<path d="M320.012 184C323.871 184 327 187.129 327 190.988V218.012C327 221.871 323.871 225 320.012 225H204.679L198.673 235.477C197.942 236.751 196.107 236.757 195.368 235.487L189.271 225H73.9883C70.1288 225 67.0002 221.871 67 218.012V190.988C67.0002 187.129 70.1288 184 73.9883 184H320.012Z" fill="white"/>
</g>
<path d="M100.243 200.914V198.155H101.25V204.852H100.243V201.818H98.388V204.28H97.3921V198.441H98.388V200.914H100.243ZM96.8426 203.581L96.2473 204.268L94.0494 202.127C93.5686 203.192 92.8932 204.073 92.0575 204.818L91.2906 204.096C92.7673 202.826 93.6602 201.143 93.8205 198.739L94.8622 198.819C94.7935 199.678 94.6447 200.456 94.4157 201.166L96.8426 203.581ZM97.5638 204.749C99.8533 204.749 101.193 205.585 101.193 206.97C101.193 208.366 99.8533 209.202 97.5638 209.202C95.2743 209.202 93.9349 208.366 93.9349 206.97C93.9349 205.585 95.2743 204.749 97.5638 204.749ZM99.7961 207.771C100.025 207.565 100.14 207.302 100.14 206.97C100.14 206.649 100.025 206.374 99.7961 206.18C99.384 205.871 98.6399 205.665 97.5638 205.665C96.4877 205.665 95.7437 205.871 95.3315 206.18C95.1026 206.374 94.9881 206.649 94.9881 206.97C94.9881 207.302 95.1026 207.565 95.3315 207.771C95.7322 208.092 96.4877 208.286 97.5638 208.286C98.6399 208.286 99.384 208.092 99.7961 207.771ZM111.839 201.601H113.728V202.517H111.839V204.737H110.832V198.155H111.839V201.601ZM103.494 199.243H108.885C108.519 202.116 106.115 204.051 103.471 204.875L102.91 203.97C105.531 203.226 107.111 201.67 107.626 200.193V200.158H103.494V199.243ZM110.786 206.249H104.627V205.31H111.839V209.168H110.786V206.249ZM120.081 204.566V206.89H125.004V207.84H114.128V206.89H119.051V204.566H115.96V199.128H116.99V200.971H122.142V199.128H123.172V204.566H120.081ZM122.142 201.887H116.99V203.65H122.142V201.887ZM134.734 203.032H136.623V203.948H134.734V209.145H133.727V205.791C131.998 206.432 129.228 206.798 126.435 206.798V199.701H131.861V200.639H127.465L127.488 205.848C129.251 205.848 131.941 205.504 133.727 204.898V198.155H134.734V203.032ZM145.435 203.238C143.088 203.238 141.657 202.356 141.657 200.925C141.657 199.494 143.088 198.613 145.435 198.613C147.782 198.613 149.212 199.494 149.212 200.925C149.212 202.356 147.782 203.238 145.435 203.238ZM143.042 200.136C142.813 200.342 142.71 200.616 142.71 200.925C142.71 201.234 142.813 201.498 143.042 201.715C143.466 202.105 144.29 202.322 145.435 202.322C146.58 202.322 147.404 202.105 147.827 201.715C148.045 201.498 148.159 201.234 148.159 200.925C148.159 200.616 148.056 200.342 147.827 200.136C147.392 199.758 146.58 199.529 145.435 199.529C144.29 199.529 143.466 199.758 143.042 200.136ZM139.997 204.314H150.872V205.253H147.827V209.202H146.831V205.253H144.05V209.202H143.054V205.253H139.997V204.314ZM161.175 209.145H160.168V198.155H161.175V209.145ZM155.451 204.646C153.757 204.646 152.59 203.661 152.59 202.013C152.59 200.376 153.757 199.391 155.451 199.391C157.146 199.391 158.313 200.376 158.313 202.013C158.313 203.661 157.146 204.646 155.451 204.646ZM155.451 203.742C156.516 203.742 157.283 203.146 157.283 202.013C157.283 200.891 156.516 200.296 155.451 200.296C154.387 200.296 153.62 200.891 153.62 202.013C153.62 203.146 154.387 203.742 155.451 203.742ZM151.616 207.405L151.502 206.455C154.936 206.455 157.375 206.294 159.55 205.802L159.687 206.695C157.501 207.187 154.982 207.405 151.616 207.405ZM172.05 198.155V201.715H173.939V202.631H172.05V204.394H171.043V198.155H172.05ZM164.323 198.384H168.696V199.208H164.323V198.384ZM163.007 199.998H169.761V200.857H163.007V199.998ZM169.017 202.929C169.017 203.845 168.044 204.417 166.498 204.417C164.964 204.417 163.991 203.845 163.991 202.929C163.991 202.013 164.964 201.441 166.498 201.441C168.044 201.441 169.017 202.013 169.017 202.929ZM164.941 202.929C164.941 203.375 165.525 203.65 166.498 203.65C167.483 203.65 168.067 203.375 168.067 202.929C168.067 202.482 167.483 202.208 166.498 202.208C165.525 202.208 164.941 202.482 164.941 202.929ZM172.05 207.428H166.143V208.286H172.508V209.145H165.136V206.615H171.032V205.814H164.861V204.966H172.05V207.428ZM178.584 204.772L178.069 203.845C181.011 203.272 183.804 201.876 184.709 200.296V200.25H179.168V199.3H186.197C185.876 200.616 184.903 201.727 183.667 202.597L187.433 203.913L186.918 204.715L182.774 203.181C181.423 203.948 179.901 204.486 178.584 204.772ZM183.266 204.337V206.89H188.189V207.84H177.314V206.89H182.236V204.337H183.266ZM197.919 198.155V202.001H199.808V202.917H197.919V205.138H196.912V198.155H197.919ZM190.192 198.441H194.565V199.288H190.192V198.441ZM188.876 200.181H195.63V201.063H188.876V200.181ZM194.886 203.352C194.886 204.337 193.901 204.989 192.367 204.989C190.833 204.989 189.86 204.337 189.86 203.352C189.86 202.379 190.833 201.727 192.367 201.727C193.901 201.727 194.886 202.379 194.886 203.352ZM190.822 203.352C190.822 203.867 191.394 204.199 192.367 204.199C193.352 204.199 193.912 203.867 193.912 203.352C193.912 202.849 193.352 202.517 192.367 202.517C191.394 202.517 190.822 202.849 190.822 203.352ZM194.405 205.321C196.694 205.321 198.034 206.008 198.034 207.256C198.034 208.515 196.694 209.202 194.405 209.202C192.115 209.202 190.776 208.515 190.776 207.256C190.776 206.008 192.115 205.321 194.405 205.321ZM196.648 207.897C196.877 207.737 196.98 207.519 196.98 207.256C196.98 207.004 196.877 206.775 196.648 206.626C196.248 206.397 195.492 206.237 194.405 206.237C193.317 206.237 192.562 206.397 192.161 206.626C191.932 206.775 191.829 207.004 191.829 207.256C191.829 207.519 191.932 207.737 192.161 207.897C192.562 208.137 193.317 208.286 194.405 208.286C195.492 208.286 196.248 208.126 196.648 207.897ZM205.646 202.036C203.368 202.036 201.983 201.395 201.983 200.181C201.983 198.968 203.368 198.327 205.646 198.327C207.924 198.327 209.309 198.968 209.309 200.181C209.309 201.395 207.924 202.036 205.646 202.036ZM205.646 201.12C206.745 201.12 207.558 200.971 207.959 200.719C208.165 200.582 208.256 200.399 208.256 200.181C208.256 199.964 208.176 199.781 207.959 199.643C207.547 199.403 206.745 199.243 205.646 199.243C204.547 199.243 203.734 199.403 203.334 199.643C203.116 199.781 203.036 199.964 203.036 200.181C203.036 200.399 203.128 200.582 203.334 200.719C203.734 200.971 204.547 201.12 205.646 201.12ZM211.084 203.696H200.209V202.768H211.084V203.696ZM209.744 209.088H202.212V206.409H208.027V205.482H202.006V204.623H209.058V207.244H203.231V208.218H209.744V209.088ZM223.788 198.155V201.2H225.677V202.116H223.788V204.051H222.781V198.155H223.788ZM215.374 199.128H220.525V203.764H215.374V199.128ZM216.381 202.929H219.518V199.975H216.381V202.929ZM223.685 205.379H220.296V204.623H223.685V205.379ZM217.32 205.115V208.092C217.995 208.08 218.74 208.011 219.472 207.886L219.564 208.756C218.579 208.916 217.526 208.973 216.347 208.973V205.115H217.32ZM224.589 206.638H219.266V205.836H224.589V206.638ZM222.025 206.993C223.296 206.993 224.04 207.405 224.04 208.149C224.04 208.904 223.296 209.316 222.025 209.316C220.789 209.316 219.987 208.904 219.987 208.149C219.987 207.405 220.789 206.993 222.025 206.993ZM222.025 208.584C222.712 208.584 223.17 208.458 223.17 208.126C223.17 207.817 222.712 207.679 222.025 207.679C221.35 207.679 220.869 207.817 220.869 208.126C220.869 208.458 221.35 208.584 222.025 208.584ZM235.808 209.145H234.778V198.155H235.808V209.145ZM229.683 207.107C227.909 207.107 226.764 205.722 226.764 203.272C226.764 200.834 227.909 199.449 229.683 199.449C231.458 199.449 232.603 200.834 232.603 203.272C232.603 205.722 231.458 207.107 229.683 207.107ZM229.683 206.145C230.851 206.145 231.549 205.161 231.549 203.272C231.549 201.395 230.851 200.41 229.683 200.41C228.516 200.41 227.817 201.395 227.817 203.272C227.817 205.161 228.516 206.145 229.683 206.145ZM249.657 198.155V201.143H251.546V202.059H249.657V203.936H248.649V198.155H249.657ZM245.421 198.899H246.394V203.707H241.243V198.899H242.216V200.525H245.421V198.899ZM242.216 202.86H245.421V201.372H242.216V202.86ZM249.657 207.21H243.773V208.275H250.115V209.145H242.754V206.374H248.626V205.379H242.468V204.508H249.657V207.21ZM260.646 201.704H257.555C256.571 203.398 254.808 204.6 252.919 205.218L252.347 204.325C254.98 203.524 256.571 201.898 257.075 200.364V200.33H252.931V199.414H258.334C258.277 199.907 258.151 200.376 257.99 200.811H260.646V198.155H261.677V206.397H260.646V204.051H257.727V203.158H260.646V201.704ZM255.838 205.31V208.034H262.134V208.973H254.808V205.31H255.838ZM272.403 202.391H270.548V204.966H269.553V198.441H270.548V201.486H272.403V198.155H273.41V205.024H272.403V202.391ZM264.538 198.556H268.122V199.38H264.538V198.556ZM263.565 200.261H268.946V201.109H263.565V200.261ZM266.359 204.875C265.077 204.875 264.207 204.325 264.207 203.341C264.207 202.356 265.077 201.807 266.359 201.807C267.652 201.807 268.522 202.356 268.522 203.341C268.522 204.325 267.652 204.875 266.359 204.875ZM266.359 202.574C265.615 202.574 265.099 202.826 265.099 203.341C265.099 203.856 265.615 204.108 266.359 204.108C267.103 204.108 267.618 203.856 267.618 203.341C267.618 202.826 267.103 202.574 266.359 202.574ZM271.842 206.5L274.074 208.389L273.502 209.088L271.396 207.313C270.869 208.137 270.148 208.813 269.346 209.339L268.648 208.584C269.953 207.782 270.915 206.729 271.212 205.184L272.243 205.333C272.14 205.745 272.014 206.134 271.842 206.5ZM267.801 206.294L269.221 207.451L268.579 208.183L267.343 207.119C266.817 207.92 266.095 208.63 265.294 209.145L264.55 208.389C265.832 207.645 266.782 206.512 267.091 205.218L268.122 205.367C268.041 205.676 267.938 205.985 267.801 206.294ZM283.541 202.746V198.155H284.572V209.145H283.541V203.661H281.24C281.126 205.882 280.038 207.107 278.39 207.107C276.65 207.107 275.528 205.733 275.528 203.272C275.528 200.822 276.65 199.449 278.39 199.449C280.004 199.449 281.08 200.628 281.229 202.746H283.541ZM278.39 206.145C279.523 206.145 280.21 205.172 280.21 203.272C280.21 201.383 279.523 200.41 278.39 200.41C277.257 200.41 276.57 201.383 276.57 203.272C276.57 205.172 277.257 206.145 278.39 206.145ZM291.726 204.531C289.345 204.531 287.891 203.421 287.891 201.795C287.891 200.181 289.345 199.071 291.726 199.071C294.108 199.071 295.561 200.181 295.561 201.795C295.561 203.421 294.108 204.531 291.726 204.531ZM289.311 200.788C289.059 201.063 288.945 201.418 288.945 201.807C288.945 202.208 289.071 202.551 289.311 202.837C289.735 203.352 290.57 203.638 291.726 203.638C292.883 203.638 293.718 203.352 294.142 202.837C294.382 202.551 294.508 202.208 294.508 201.807C294.508 201.418 294.394 201.063 294.142 200.788C293.695 200.284 292.883 199.987 291.726 199.987C290.57 199.987 289.735 200.273 289.311 200.788ZM294.279 204.623V206.89H297.164V207.84H286.289V206.89H289.185V204.623H290.158V206.89H293.306V204.623H294.279ZM299.9 205.882L299.717 203.604V198.67H300.862V203.593L300.713 205.882H299.9ZM300.312 208.859C299.808 208.859 299.396 208.446 299.396 207.954C299.396 207.451 299.808 207.027 300.312 207.027C300.816 207.027 301.228 207.451 301.228 207.954C301.228 208.446 300.816 208.859 300.312 208.859Z" fill="#004EC2"/>
<g clip-path="url(#clip1_697_3320)" filter="url(#filter1_d_697_3320)">
<g filter="url(#filter2_d_697_3320)">
<path d="M116.095 146.06L113.721 144.931L111.716 143.703L109.772 142.361L107.748 141.16L105.721 139.901L103.997 141.744L101.667 142.583L99.881 144.264L97.4985 144.879L95.2891 145.764L93.1662 147.116L92.2083 144.706L90.5119 142.771L89.0039 140.617L91.5007 139.911L93.7441 139.29L95.6476 137.917L97.7643 136.982L99.8779 135.967L101.339 134.082L102.878 132.397L104.334 130.663L105.959 128.988L105.851 128.713L103.564 128.932L101.281 128.673L98.9972 128.383L96.7136 128.704L94.4301 128.679L92.2454 128.645L91.8035 126.414L92.369 124.084L92.2516 121.854L94.3096 121.696L96.4726 121.523L98.6357 121.418L100.799 121.989L102.962 121.761L105.125 121.647L107.288 121.594L109.451 121.477L111.617 121.983L113.783 121.304L116.045 121.505L115.798 124.143L115.072 126.426L113.811 128.488L112.915 130.651L112.084 132.894L111.061 134.563L112.473 135.986L114.574 136.486L116.345 137.593L118.097 138.741L120.133 139.769L118.638 141.793L116.907 143.493L116.091 146.063L116.095 146.06ZM97.171 165.83L97.0165 163.198L97.1277 160.844L97.3687 158.489L97.446 156.132L97.5758 153.774L97.1401 151.417L97.7581 149.06L97.2915 146.539L99.6894 147.023L101.914 147.134L104.139 146.606L106.364 147.042L108.589 146.597L110.814 146.412L113.035 146.826L115.26 147.094L117.485 146.668L119.71 146.878L121.935 147.183L124.16 146.594L126.385 146.427L128.612 146.406L130.751 146.785L130.81 149.056L131.029 151.411L130.769 153.765L130.479 156.123L130.8 158.48L130.776 160.837L130.701 163.195L131.091 165.787L128.619 165.33L126.394 165.407L124.169 165.611L121.944 165.784L119.719 165.889L117.494 165.318L115.273 165.546L113.048 165.66L110.823 165.713L108.598 165.83L106.373 165.324L104.148 166.003L101.924 165.821L99.7079 165.771L97.1741 165.833L97.171 165.83ZM106.401 153.506L106.54 155.953L106.348 158.443L108.369 158.563L110.65 158.64L112.93 158.77L115.211 158.335L117.491 158.952L119.775 158.421L122.306 158.866L122.494 155.95L121.987 153.302L119.778 152.901L117.497 153.345L115.217 153.531L112.937 153.117L110.656 152.849L108.376 153.274L106.401 153.5V153.506ZM137.326 129.87L137.496 132.129L137.385 134.097L137.144 136.066L137.061 138.05L134.978 137.927L132.908 138.362L130.621 137.837L131.075 140.284L130.516 142.533L130.522 144.484L128.696 144.875L126.551 144.44L124.407 144.885L122.055 144.983L122.386 142.589L122.655 140.395L122.228 138.201L122.439 136.007L122.744 133.813L122.154 131.62L121.987 129.426L121.966 127.232L122.383 125.038L122.29 122.844L122.071 120.647L122.312 118.499L124.404 118.811L126.548 118.49L128.693 118.515L130.732 118.543L131.177 120.789L130.612 123.131L130.689 125.473L130.893 127.818L131.007 130.009L132.905 129.827L134.99 130.398L137.323 129.867L137.326 129.87Z" fill="#FCFCFC"/>
</g>
<g filter="url(#filter3_d_697_3320)">
<path d="M140.18 122.418L142.562 122.381L144.926 122.156L147.293 122.508L149.657 122.915L152.024 122.036L154.249 122.884L154.539 124.649L154.292 126.846L153.912 129.022L153.208 131.123L153.01 133.341L152.132 135.372L151.313 137.408L150.321 139.368L148.86 141.031L148.245 143.302L146.786 144.993L145.025 146.372L143.128 147.939L141.583 145.764L139.271 144.508L137.637 142.506L139.648 141.281L140.86 139.25L142.874 138.013L143.767 135.856L145.183 134.063L145.801 131.876L146.956 129.774L146.545 129.136L144.407 129.404L142.303 129.299L140.294 129.45L139.843 127.173L139.735 124.813L140.186 122.431L140.18 122.418ZM155.847 150.593L155.877 153.049L156.103 155.512L155.769 158.02L157.966 158.452L160.111 157.573L162.255 158.443L164.397 157.736L166.541 157.795L168.686 157.881L170.83 158.178L172.975 157.82L175.119 158.02L177.264 158.002H179.411L181.25 158.242L181.995 160.489L181.989 163L181.68 165.614L179.402 165.784L177.245 165.241L175.088 165.904L172.932 165.565L170.775 165.265L168.618 165.938L166.461 165.262L164.307 165.808L162.15 165.463L159.993 165.719L157.837 165.059L155.68 165.108L153.523 165.376L151.366 165.271L149.206 165.383L146.793 165.759L146.579 163.321L146.644 161.137L146.598 158.949L146.709 156.764L146.95 154.577L147.027 152.389L147.126 150.275L149.129 149.874L151.211 150.491L153.294 149.961L155.689 150.281L153.946 148.455L151.901 147.449L150.544 145.789L151.814 144.477L153.201 142.83L154.923 141.475L156.437 139.886L157.228 137.819L158.405 135.989L159.508 134.076L159.548 131.823L159.737 129.7L159.984 129.821L157.843 129.404L155.695 129.506L155.485 127.164L155.745 124.8L155.945 122.674L157.753 122.477L159.83 122.502L161.906 122.576L163.986 122.094L166.065 122.659L168.092 122.573L168.111 124.717V127.01L167.947 129.299L167.017 131.462L166.761 133.733L166.266 135.964L165.577 138.146L164.802 140.309L163.321 142.117L162.722 144.428L161.233 146.199L159.718 147.93L158.01 149.464L156.196 150.488L155.84 150.593H155.847ZM180.141 132.067L182.193 132.03L184.263 131.805L186.284 132.135L185.854 134.048L186.735 136.017L185.864 137.985L186.497 140.127L184.263 140.133L182.193 140.046L179.971 139.818L180.28 142.24L180.079 144.53L180.097 146.819V149.109L179.714 151.398L180.447 153.978L178.064 154.117L176.006 153.845L173.948 153.96L172.085 153.503L171.492 151.485L171.831 149.282L172.131 147.079L171.458 144.875L172.134 142.672L171.587 140.469L171.933 138.266L171.677 136.066L172.338 133.863L172.289 131.66L172.02 129.457L172.125 127.253L172.014 125.05L171.529 122.847L171.421 120.641L171.594 118.16L173.945 117.987L176.003 118.098L178.061 118.339L180.135 118.422L180.011 120.709L180.447 122.98L179.829 125.251L180.36 127.522L179.801 129.796L180.141 132.052V132.067Z" fill="#FCFCFC"/>
</g>
<g filter="url(#filter4_d_697_3320)">
<path d="M214.452 122.064L213.75 124.514L214.547 126.643L213.868 128.772L213.84 130.901L213.756 133.031L213.657 135.16L214.025 137.289L213.985 139.418L213.96 141.547L214.362 143.679L214.217 145.894L211.98 145.589L209.826 146.2L207.672 145.583L205.518 146.203L203.364 146.172L201.211 146.16L199.054 145.836L196.9 145.577L194.743 146.046L192.586 145.555L190.201 146.043L190.08 143.682L190.025 141.553L190.253 139.424L190.692 137.295L190.451 135.166L190.188 133.037L190.649 130.908L190.198 128.779L189.947 126.649L190.751 124.517L190.312 122.271L192.58 122.552L194.734 122.021L196.888 122.521L199.041 122.28L201.195 122.36L203.349 122.539L205.506 122.638L207.66 122.024L209.816 122.367L211.946 121.978L214.448 122.058L214.452 122.064ZM205.432 148.891L204.73 151.378L205.527 153.544L204.848 155.71L204.903 158.083L207.255 158.252L209.399 158.351L211.544 157.984L213.685 158.024L215.83 158.049L217.974 157.648L220.119 157.759L222.263 158.098L224.408 157.487L226.552 158.104L228.7 157.484L231.123 157.645L231.194 160.419L230.869 162.961L230.665 165.352L228.691 165.738L226.534 165.248L224.377 165.831L222.22 165.855L220.063 165.911L217.906 165.683L215.749 165.244L213.596 165.485L211.439 165.747L209.282 165.288L207.125 165.738L204.968 165.988L202.811 165.186L200.654 165.67L198.494 165.343L196.069 165.757L196.474 163.183L196.232 160.857L196.313 158.53L196.492 156.204L196.591 153.877L195.976 151.547L196.322 149.208L198.522 148.813L200.716 149.193L202.907 149.165L205.422 148.897L205.432 148.891ZM206.17 139.051L206.878 137.292L206.081 135.215L206.76 133.139L206.788 131.059L206.763 128.717L204.44 128.507L202.382 128.874L200.324 128.834L198.142 128.862L198.494 131.059L198.383 133.135L198.043 135.212L198.655 137.292L198.102 139.532L200.321 138.98L202.379 139.01L204.409 139.023L206.176 139.051H206.17ZM229.751 131.778L231.484 132.466L233.554 131.67L235.442 132.275L235.331 134.049L235.248 136.017L235.149 137.986L235.551 139.878L233.557 139.807L231.487 139.782L229.587 140.106L229.537 142.241L229.197 144.531L229.809 146.82L229.191 149.11L229.812 151.399L229.683 153.936L227.275 154.037L225.131 153.713L222.986 153.454L220.675 153.852L221.101 151.489L220.517 149.286L220.493 147.082L220.437 144.879L220.666 142.676L221.104 140.473L220.863 138.27L220.601 136.07L221.061 133.867L220.61 131.664L220.36 129.46L221.163 127.257L220.678 125.054L221.006 122.851L220.474 120.645L220.935 118.537L222.977 118.34L225.122 118.42L227.266 118.599L229.225 118.618L229.769 120.713L229.426 122.984L229.815 125.255L229.435 127.526L229.463 129.794L229.744 131.765L229.751 131.778Z" fill="#FCFCFC"/>
</g>
<g filter="url(#filter5_d_697_3320)">
<path d="M275.028 153.716L277.482 153.864H279.713L281.944 153.595L284.088 153.589L284.305 155.521L284.403 157.551L284.558 159.582L284.45 161.914L281.944 161.584L279.716 161.834L277.488 161.778L275.26 161.402L273.029 161.232L270.801 161.566L268.57 161.902L266.339 161.911L264.108 161.43L261.877 161.769L259.646 161.201L257.415 162.065L255.187 161.161L252.956 161.785L250.725 161.198L248.494 161.865L246.263 162.05L244.035 161.161L241.804 161.982L239.57 161.714L237.113 161.865L237.706 159.591L237.045 157.56L237.496 155.53L237.555 153.731L239.57 153.278L241.801 153.234L244.032 153.503L246.599 153.83L245.978 151.25L246.003 149.001L246.312 146.801L248.555 146.424L250.845 146.85L253.138 147.122L255.499 146.684L255.14 149.001L255.236 151.25L255.601 153.336L257.557 153.475L259.683 153.281L261.812 153.025L263.944 153.58L265.987 153.42L265.903 151.256V149.007L266.388 147.079L268.366 146.613L270.656 146.866L272.948 146.295L275.501 146.498L275.485 149.01V151.269L275.019 153.728L275.028 153.716ZM242.839 133.804L243.101 131.641L243.744 129.574L244.606 127.54L246.111 125.905L247.737 124.334L249.686 123.162L251.76 122.193L253.963 121.576L256.271 121.616L258.496 121.15L260.761 121.138L262.998 121.582L265.202 121.965L267.461 122.02L269.735 122.282L271.87 123.097L273.622 124.597L275.609 125.695L276.669 127.726L278.535 129.25L278.344 131.66L279.172 133.807L278.381 135.967L278.356 138.294L277.37 140.404L275.214 141.497L273.94 143.512L271.805 144.372L269.769 145.418L267.411 145.329L265.307 146.366L263.014 146.134L260.767 146.042L258.499 146.511L256.234 146.335L254.05 145.681L252.016 144.653L249.649 144.545L247.65 143.425L246.056 141.781L244.248 140.343L243.491 138.158L243.101 135.976L242.845 133.807L242.839 133.804ZM251.67 133.903L252.86 136.924L254.637 138.13L256.692 138.559L258.713 138.914L260.758 138.75L262.77 138.559L264.713 138.09L266.546 137.433L268.415 136.683L269.305 133.909L268.279 131.323L266.799 129.892L264.874 129.062L262.785 129.074L260.752 129.324L258.747 129.42L256.67 129.253L254.853 130.216L252.826 130.904L251.661 133.912L251.67 133.903Z" fill="#FCFCFC"/>
</g>
<g filter="url(#filter6_d_697_3320)">
<path d="M292.287 159.845L292.856 157.783L293.906 155.907L295.733 154.707L297.877 154.846L300.003 154.701L301.415 156.287L302.735 157.814L302.716 159.845L302.864 161.866L301.211 163.06L299.666 163.995L297.874 164.504L296.06 163.961L294.237 163.322L292.911 161.822L292.287 159.845ZM292.485 141.059L292.639 138.742L292.454 136.44L292.435 134.138L292.97 131.836L292.457 129.534L293.032 127.233L292.714 124.931L293.084 122.626L292.587 120.099L295.238 120.669L297.676 120.682L300.117 120.487L302.28 120.614L302.537 122.638L302.698 124.955L302.24 127.273L302.185 129.59V131.907L302.453 134.228L302.426 136.545L302.682 138.865L302.781 141.198L302.676 143.59L302.444 145.953L301.752 148.27L301.665 150.807H298.974L296.428 150.427L294.129 150.347L293.656 148.233L293.05 145.873L292.772 143.494L292.482 141.059H292.485Z" fill="#FCFCFC"/>
</g>
</g>
</g>
<defs>
<filter id="filter0_d_697_3320" x="66.152" y="183.152" width="261.696" height="54.1315" filterUnits="userSpaceOnUse" color-interpolation-filters="sRGB">
<feFlood flood-opacity="0" result="BackgroundImageFix"/>
<feColorMatrix in="SourceAlpha" type="matrix" values="0 0 0 0 0 0 0 0 0 0 0 0 0 0 0 0 0 0 127 0" result="hardAlpha"/>
<feOffset/>
<feGaussianBlur stdDeviation="0.423983"/>
<feComposite in2="hardAlpha" operator="out"/>
<feColorMatrix type="matrix" values="0 0 0 0 0 0 0 0 0 0 0 0 0 0 0 0 0 0 0.25 0"/>
<feBlend mode="normal" in2="BackgroundImageFix" result="effect1_dropShadow_697_3320"/>
<feBlend mode="normal" in="SourceGraphic" in2="effect1_dropShadow_697_3320" result="shape"/>
</filter>
<filter id="filter1_d_697_3320" x="84" y="113" width="224" height="58" filterUnits="userSpaceOnUse" color-interpolation-filters="sRGB">
<feFlood flood-opacity="0" result="BackgroundImageFix"/>
<feColorMatrix in="SourceAlpha" type="matrix" values="0 0 0 0 0 0 0 0 0 0 0 0 0 0 0 0 0 0 127 0" result="hardAlpha"/>
<feOffset/>
<feGaussianBlur stdDeviation="2.5"/>
<feComposite in2="hardAlpha" operator="out"/>
<feColorMatrix type="matrix" values="0 0 0 0 0 0 0 0 0 0 0 0 0 0 0 0 0 0 0.2 0"/>
<feBlend mode="normal" in2="BackgroundImageFix" result="effect1_dropShadow_697_3320"/>
<feBlend mode="normal" in="SourceGraphic" in2="effect1_dropShadow_697_3320" result="shape"/>
</filter>
<filter id="filter2_d_697_3320" x="84.0039" y="113.49" width="58.4922" height="57.5127" filterUnits="userSpaceOnUse" color-interpolation-filters="sRGB">
<feFlood flood-opacity="0" result="BackgroundImageFix"/>
<feColorMatrix in="SourceAlpha" type="matrix" values="0 0 0 0 0 0 0 0 0 0 0 0 0 0 0 0 0 0 127 0" result="hardAlpha"/>
<feOffset/>
<feGaussianBlur stdDeviation="2.5"/>
<feComposite in2="hardAlpha" operator="out"/>
<feColorMatrix type="matrix" values="0 0 0 0 0 0 0 0 0 0 0 0 0 0 0 0 0 0 0.1 0"/>
<feBlend mode="normal" in2="BackgroundImageFix" result="effect1_dropShadow_697_3320"/>
<feBlend mode="normal" in="SourceGraphic" in2="effect1_dropShadow_697_3320" result="shape"/>
</filter>
<filter id="filter3_d_697_3320" x="132.637" y="112.987" width="59.0977" height="57.9507" filterUnits="userSpaceOnUse" color-interpolation-filters="sRGB">
<feFlood flood-opacity="0" result="BackgroundImageFix"/>
<feColorMatrix in="SourceAlpha" type="matrix" values="0 0 0 0 0 0 0 0 0 0 0 0 0 0 0 0 0 0 127 0" result="hardAlpha"/>
<feOffset/>
<feGaussianBlur stdDeviation="2.5"/>
<feComposite in2="hardAlpha" operator="out"/>
<feColorMatrix type="matrix" values="0 0 0 0 0 0 0 0 0 0 0 0 0 0 0 0 0 0 0.1 0"/>
<feBlend mode="normal" in2="BackgroundImageFix" result="effect1_dropShadow_697_3320"/>
<feBlend mode="normal" in="SourceGraphic" in2="effect1_dropShadow_697_3320" result="shape"/>
</filter>
<filter id="filter4_d_697_3320" x="184.947" y="113.34" width="55.6035" height="57.6484" filterUnits="userSpaceOnUse" color-interpolation-filters="sRGB">
<feFlood flood-opacity="0" result="BackgroundImageFix"/>
<feColorMatrix in="SourceAlpha" type="matrix" values="0 0 0 0 0 0 0 0 0 0 0 0 0 0 0 0 0 0 127 0" result="hardAlpha"/>
<feOffset/>
<feGaussianBlur stdDeviation="2.5"/>
<feComposite in2="hardAlpha" operator="out"/>
<feColorMatrix type="matrix" values="0 0 0 0 0 0 0 0 0 0 0 0 0 0 0 0 0 0 0.1 0"/>
<feBlend mode="normal" in2="BackgroundImageFix" result="effect1_dropShadow_697_3320"/>
<feBlend mode="normal" in="SourceGraphic" in2="effect1_dropShadow_697_3320" result="shape"/>
</filter>
<filter id="filter5_d_697_3320" x="232.045" y="116.138" width="57.5137" height="50.9277" filterUnits="userSpaceOnUse" color-interpolation-filters="sRGB">
<feFlood flood-opacity="0" result="BackgroundImageFix"/>
<feColorMatrix in="SourceAlpha" type="matrix" values="0 0 0 0 0 0 0 0 0 0 0 0 0 0 0 0 0 0 127 0" result="hardAlpha"/>
<feOffset/>
<feGaussianBlur stdDeviation="2.5"/>
<feComposite in2="hardAlpha" operator="out"/>
<feColorMatrix type="matrix" values="0 0 0 0 0 0 0 0 0 0 0 0 0 0 0 0 0 0 0.1 0"/>
<feBlend mode="normal" in2="BackgroundImageFix" result="effect1_dropShadow_697_3320"/>
<feBlend mode="normal" in="SourceGraphic" in2="effect1_dropShadow_697_3320" result="shape"/>
</filter>
<filter id="filter6_d_697_3320" x="287.287" y="115.099" width="20.5781" height="54.4053" filterUnits="userSpaceOnUse" color-interpolation-filters="sRGB">
<feFlood flood-opacity="0" result="BackgroundImageFix"/>
<feColorMatrix in="SourceAlpha" type="matrix" values="0 0 0 0 0 0 0 0 0 0 0 0 0 0 0 0 0 0 127 0" result="hardAlpha"/>
<feOffset/>
<feGaussianBlur stdDeviation="2.5"/>
<feComposite in2="hardAlpha" operator="out"/>
<feColorMatrix type="matrix" values="0 0 0 0 0 0 0 0 0 0 0 0 0 0 0 0 0 0 0.1 0"/>
<feBlend mode="normal" in2="BackgroundImageFix" result="effect1_dropShadow_697_3320"/>
<feBlend mode="normal" in="SourceGraphic" in2="effect1_dropShadow_697_3320" result="shape"/>
</filter>
<linearGradient id="paint0_linear_697_3320" x1="196.562" y1="73" x2="196.562" y2="374" gradientUnits="userSpaceOnUse">
<stop stop-color="#1F79FF"/>
<stop offset="1" stop-color="#1F79FF" stop-opacity="0"/>
</linearGradient>
<radialGradient id="paint1_radial_697_3320" cx="0" cy="0" r="1" gradientUnits="userSpaceOnUse" gradientTransform="translate(232.009 396) rotate(-122.729) scale(155.893)">
<stop stop-color="#5197FF"/>
<stop offset="1" stop-color="#F6FAFF"/>
</radialGradient>
<clipPath id="clip0_697_3320">
<rect width="393" height="358" fill="white"/>
</clipPath>
<clipPath id="clip1_697_3320">
<rect width="214" height="48" fill="white" transform="translate(89 118)"/>
</clipPath>
</defs>
</svg>
