<svg width="167" height="92" viewBox="0 0 167 92" fill="none" xmlns="http://www.w3.org/2000/svg">
<g filter="url(#filter0_d_697_3853)">
<path d="M36.9828 39.8197L51.2168 67.5797C51.5188 68.1686 50.9853 68.8314 50.3527 68.6367C39.2579 65.2208 17.6609 55.7337 8.17842 41.0813C-1.74206 25.7519 22.8449 33.559 36.6127 39.4714C36.7745 39.5409 36.9025 39.663 36.9828 39.8197Z" fill="#C1D8FC"/>
<circle cx="82.583" cy="62.7236" r="57.7236" fill="url(#paint0_radial_697_3853)"/>
<circle cx="60.1758" cy="37.8057" r="4.05988" fill="#2B2B2B" stroke="#2B2B2B" stroke-width="0.126467"/>
<circle cx="84.1954" cy="37.8057" r="4.05988" fill="#2B2B2B" stroke="#2B2B2B" stroke-width="0.126467"/>
<line x1="57.3513" y1="28.7981" x2="63.3567" y2="28.7981" stroke="#2B2B2B" stroke-width="1.88229" stroke-linecap="round"/>
<line x1="80.738" y1="28.7981" x2="86.7434" y2="28.7981" stroke="#2B2B2B" stroke-width="1.88229" stroke-linecap="round"/>
<circle opacity="0.12" cx="45.2972" cy="46.9486" r="11.473" fill="white"/>
<circle opacity="0.12" cx="99.0746" cy="46.9486" r="11.473" fill="white"/>
<path d="M50.5882 46.359C50.0985 46.2194 50.0985 45.5255 50.5882 45.386L72.4128 39.1669C72.6333 39.1041 72.8686 39.1975 72.986 39.3945L76.692 45.6134C76.7871 45.773 76.7871 45.9718 76.692 46.1314L72.986 52.3504C72.8686 52.5474 72.6333 52.6408 72.4128 52.578L50.5882 46.359Z" fill="#FF4949"/>
<path d="M138.12 52.1482L110.323 58.9455C109.671 59.1049 109.53 59.9607 110.109 60.3003C119.435 65.7696 139.261 74.597 155.168 72.3257C171.905 69.9356 151.249 57.9796 138.611 52.1931C138.456 52.1222 138.286 52.1078 138.12 52.1482Z" fill="#C1D8FC"/>
</g>
<defs>
<filter id="filter0_d_697_3853" x="0.880859" y="0" width="165.561" height="125.447" filterUnits="userSpaceOnUse" color-interpolation-filters="sRGB">
<feFlood flood-opacity="0" result="BackgroundImageFix"/>
<feColorMatrix in="SourceAlpha" type="matrix" values="0 0 0 0 0 0 0 0 0 0 0 0 0 0 0 0 0 0 127 0" result="hardAlpha"/>
<feOffset/>
<feGaussianBlur stdDeviation="2.5"/>
<feComposite in2="hardAlpha" operator="out"/>
<feColorMatrix type="matrix" values="0 0 0 0 0 0 0 0 0 0 0 0 0 0 0 0 0 0 0.1 0"/>
<feBlend mode="normal" in2="BackgroundImageFix" result="effect1_dropShadow_697_3853"/>
<feBlend mode="normal" in="SourceGraphic" in2="effect1_dropShadow_697_3853" result="shape"/>
</filter>
<radialGradient id="paint0_radial_697_3853" cx="0" cy="0" r="1" gradientUnits="userSpaceOnUse" gradientTransform="translate(104.274 97.8598) rotate(-122.729) scale(97.8119)">
<stop stop-color="#5197FF"/>
<stop offset="1" stop-color="#F6FAFF"/>
</radialGradient>
</defs>
</svg>
